<?xml version="1.0" encoding="UTF-8"?>
<!DOCTYPE svg PUBLIC "-//W3C//DTD SVG 1.1//EN" "http://www.w3.org/Graphics/SVG/1.1/DTD/svg11.dtd">
<svg xmlns="http://www.w3.org/2000/svg" version="1.1" width="128px" height="128px" style="shape-rendering:geometricPrecision; text-rendering:geometricPrecision; image-rendering:optimizeQuality; fill-rule:evenodd; clip-rule:evenodd" xmlns:xlink="http://www.w3.org/1999/xlink">
<g><path style="opacity:0.998" fill="#444444" d="M 43.5,46.5 C 41.7745,48.2279 40.4411,50.2279 39.5,52.5C 38.2921,51.7659 36.9587,51.4326 35.5,51.5C 35.7136,47.7429 34.7136,47.0762 32.5,49.5C 31.3064,46.3814 29.8064,46.0481 28,48.5C 27.7266,46.8988 27.2266,45.3988 26.5,44C 22.6427,43.4425 19.1427,43.6092 16,44.5C 15.7811,43.062 15.2811,41.7287 14.5,40.5C 13.5745,39.3595 12.7412,39.3595 12,40.5C 11.0228,37.1827 11.8562,34.516 14.5,32.5C 13.913,33.7666 13.913,34.7666 14.5,35.5C 18.9084,29.9588 20.7418,30.6255 20,37.5C 20.3173,35.6992 20.984,35.3659 22,36.5C 23.6356,34.1017 25.8023,32.935 28.5,33C 27.6721,33.9147 26.6721,34.5814 25.5,35C 25.9437,36.5333 26.277,38.0333 26.5,39.5C 31.426,35.0606 32.7593,35.5606 30.5,41C 31.8514,42.8141 32.8514,42.4808 33.5,40C 34.5,39.3333 35.5,39.3333 36.5,40C 33.9688,45.1277 34.8022,45.6277 39,41.5C 39.1953,43.2072 39.1953,44.8739 39,46.5C 40.0195,45.3128 41.1861,44.3128 42.5,43.5C 42.593,44.4719 42.9264,45.4719 43.5,46.5 Z"/></g>
<g><path style="opacity:0.999" fill="#151314" d="M 85.5,47.5 C 93.6164,61.7956 91.6164,74.4623 79.5,85.5C 77.7162,85.8925 76.0495,86.5592 74.5,87.5C 70.3645,89.0482 66.3645,90.0482 62.5,90.5C 57.6762,89.1282 53.0095,87.2949 48.5,85C 40.9007,79.0472 37.234,71.2138 37.5,61.5C 37.3253,59.3792 37.6586,57.3792 38.5,55.5C 38.5569,54.391 38.8902,53.391 39.5,52.5C 40.4411,50.2279 41.7745,48.2279 43.5,46.5C 44.5,45.1667 45.5,43.8333 46.5,42.5C 49.8068,40.8466 53.1401,39.1799 56.5,37.5C 68.1837,35.2825 77.8504,38.6158 85.5,47.5 Z"/></g>
<g><path style="opacity:0.998" fill="#363636" d="M 123.5,47.5 C 123.657,48.8734 123.49,50.2068 123,51.5C 122.489,49.1218 121.822,46.7885 121,44.5C 120.667,46.1667 120.333,47.8333 120,49.5C 118.667,46.8333 117.333,46.8333 116,49.5C 114.667,46.8333 113.333,46.8333 112,49.5C 110.667,46.8333 109.333,46.8333 108,49.5C 106.667,46.8333 105.333,46.8333 104,49.5C 102.667,46.8333 101.333,46.8333 100,49.5C 98.6667,46.8333 97.3333,46.8333 96,49.5C 94.6667,46.8333 93.3333,46.8333 92,49.5C 90.6667,46.8333 89.3333,46.8333 88,49.5C 87.5831,48.244 86.7498,47.5774 85.5,47.5C 77.8504,38.6158 68.1837,35.2825 56.5,37.5C 56.8567,35.4109 57.5233,33.4109 58.5,31.5C 76.2588,31.5529 94.0921,31.8863 112,32.5C 112.52,30.7111 112.187,29.0444 111,27.5C 91.1143,4.44548 67.2809,-1.22118 39.5,10.5C 28.6664,15.0008 20.333,22.3341 14.5,32.5C 11.8562,34.516 11.0228,37.1827 12,40.5C 12.7412,39.3595 13.5745,39.3595 14.5,40.5C 15.2811,41.7287 15.7811,43.062 16,44.5C 19.1427,43.6092 22.6427,43.4425 26.5,44C 27.2266,45.3988 27.7266,46.8988 28,48.5C 29.8064,46.0481 31.3064,46.3814 32.5,49.5C 34.7136,47.0762 35.7136,47.7429 35.5,51.5C 36.9587,51.4326 38.2921,51.7659 39.5,52.5C 38.8902,53.391 38.5569,54.391 38.5,55.5C 35.6533,55.2176 32.9866,55.2176 30.5,55.5C 29.2299,54.4378 28.0633,53.4378 27,52.5C 25.5981,54.9734 24.0981,54.9734 22.5,52.5C 20.2619,55.4327 19.2619,55.0993 19.5,51.5C 16.1906,52.1926 13.0239,52.1926 10,51.5C 9.05456,51.9054 8.38789,52.572 8,53.5C 7.5,52.5 7,51.5 6.5,50.5C 7.82659,45.8424 9.15992,41.1758 10.5,36.5C 10.315,35.4163 9.98166,34.4163 9.5,33.5C 28.4623,3.78796 54.7956,-5.37871 88.5,6C 106.865,14.2561 118.532,28.0894 123.5,47.5 Z"/></g>
<g><path style="opacity:0.998" fill="#4f4f4f" d="M 39.5,10.5 C 40.9526,11.8249 40.6192,12.6582 38.5,13C 43.2331,14.0061 47.8997,14.6728 52.5,15C 50.7139,15.1962 49.3805,16.0295 48.5,17.5C 50.8663,17.1332 53.1996,17.6332 55.5,19C 53.5,20 51.5,21 49.5,22C 49.8333,22.3333 50.1667,22.6667 50.5,23C 49.1456,24.2937 47.8123,24.4604 46.5,23.5C 43.7431,26.3155 44.2431,26.9822 48,25.5C 51.3333,26.5 51.3333,27.5 48,28.5C 47.6667,28.1667 47.3333,27.8333 47,27.5C 45.2491,29.212 44.5825,31.212 45,33.5C 46.246,32.2283 47.4126,31.895 48.5,32.5C 46.731,34.557 44.731,36.3903 42.5,38C 44.5672,38.5356 46.4006,38.0356 48,36.5C 47.8047,38.745 46.6381,40.5784 44.5,42C 45.0944,42.4643 45.7611,42.631 46.5,42.5C 45.5,43.8333 44.5,45.1667 43.5,46.5C 42.9264,45.4719 42.593,44.4719 42.5,43.5C 41.1861,44.3128 40.0195,45.3128 39,46.5C 39.1953,44.8739 39.1953,43.2072 39,41.5C 34.8022,45.6277 33.9688,45.1277 36.5,40C 35.5,39.3333 34.5,39.3333 33.5,40C 32.8514,42.4808 31.8514,42.8141 30.5,41C 32.7593,35.5606 31.426,35.0606 26.5,39.5C 26.277,38.0333 25.9437,36.5333 25.5,35C 26.6721,34.5814 27.6721,33.9147 28.5,33C 25.8023,32.935 23.6356,34.1017 22,36.5C 20.984,35.3659 20.3173,35.6992 20,37.5C 20.7418,30.6255 18.9084,29.9588 14.5,35.5C 13.913,34.7666 13.913,33.7666 14.5,32.5C 20.333,22.3341 28.6664,15.0008 39.5,10.5 Z"/></g>
<g><path style="opacity:0.998" fill="#444444" d="M 56.5,37.5 C 53.1401,39.1799 49.8068,40.8466 46.5,42.5C 45.7611,42.631 45.0944,42.4643 44.5,42C 46.6381,40.5784 47.8047,38.745 48,36.5C 46.4006,38.0356 44.5672,38.5356 42.5,38C 44.731,36.3903 46.731,34.557 48.5,32.5C 47.4126,31.895 46.246,32.2283 45,33.5C 44.5825,31.212 45.2491,29.212 47,27.5C 47.3333,27.8333 47.6667,28.1667 48,28.5C 51.3333,27.5 51.3333,26.5 48,25.5C 44.2431,26.9822 43.7431,26.3155 46.5,23.5C 47.8123,24.4604 49.1456,24.2937 50.5,23C 50.1667,22.6667 49.8333,22.3333 49.5,22C 51.5,21 53.5,20 55.5,19C 53.1996,17.6332 50.8663,17.1332 48.5,17.5C 49.3805,16.0295 50.7139,15.1962 52.5,15C 47.8997,14.6728 43.2331,14.0061 38.5,13C 40.6192,12.6582 40.9526,11.8249 39.5,10.5C 67.2809,-1.22118 91.1143,4.44548 111,27.5C 112.187,29.0444 112.52,30.7111 112,32.5C 94.0921,31.8863 76.2588,31.5529 58.5,31.5C 57.5233,33.4109 56.8567,35.4109 56.5,37.5 Z"/></g>
<g><path style="opacity:0.994" fill="#292929" d="M 123.5,47.5 C 124.302,48.9516 124.802,50.6183 125,52.5C 125.5,58.8246 125.666,65.1579 125.5,71.5C 123.902,69.1433 122.902,66.4766 122.5,63.5C 121.069,63.8807 120.236,64.8807 120,66.5C 119.517,65.552 119.351,64.552 119.5,63.5C 118.5,63.5 117.5,63.5 116.5,63.5C 116.5,66.1667 116.5,68.8333 116.5,71.5C 112.162,71.3781 111.828,71.0447 115.5,70.5C 115.5,69.5 115.5,68.5 115.5,67.5C 113.876,67.3601 112.71,68.0267 112,69.5C 111.174,67.5946 110.007,67.2612 108.5,68.5C 108.977,69.4776 109.643,70.3109 110.5,71C 108.697,75.7916 106.697,80.6249 104.5,85.5C 106.269,86.6265 107.603,86.1265 108.5,84C 108.167,83.6667 107.833,83.3333 107.5,83C 108.76,81.887 109.927,81.7203 111,82.5C 110.719,79.9429 110.886,77.2763 111.5,74.5C 115.056,74.2749 115.39,75.1082 112.5,77C 113.14,79.0565 112.973,81.2232 112,83.5C 110.05,87.178 107.884,90.678 105.5,94C 105.833,94.3333 106.167,94.6667 106.5,95C 104.116,96.4096 102.45,98.4096 101.5,101C 98.7683,101.398 96.935,102.898 96,105.5C 95,105.167 94,104.833 93,104.5C 92.5488,106.929 91.7155,107.096 90.5,105C 97.3118,100.087 102.645,94.4204 106.5,88C 102.971,87.5724 100.637,89.0724 99.5,92.5C 96.4798,95.3546 93.3132,98.0213 90,100.5C 89.5,100 89,99.5 88.5,99C 89.3366,97.9887 89.67,96.8221 89.5,95.5C 88.1266,95.6567 86.7932,95.49 85.5,95C 89.6277,90.8022 89.1277,89.9688 84,92.5C 83.51,91.2068 83.3433,89.8734 83.5,88.5C 82.448,88.6495 81.448,88.4828 80.5,88C 84.6569,83.8076 84.3235,82.9743 79.5,85.5C 91.6164,74.4623 93.6164,61.7956 85.5,47.5C 86.7498,47.5774 87.5831,48.244 88,49.5C 89.3333,46.8333 90.6667,46.8333 92,49.5C 93.3333,46.8333 94.6667,46.8333 96,49.5C 97.3333,46.8333 98.6667,46.8333 100,49.5C 101.333,46.8333 102.667,46.8333 104,49.5C 105.333,46.8333 106.667,46.8333 108,49.5C 109.333,46.8333 110.667,46.8333 112,49.5C 113.333,46.8333 114.667,46.8333 116,49.5C 117.333,46.8333 118.667,46.8333 120,49.5C 120.333,47.8333 120.667,46.1667 121,44.5C 121.822,46.7885 122.489,49.1218 123,51.5C 123.49,50.2068 123.657,48.8734 123.5,47.5 Z"/></g>
<g><path style="opacity:0.998" fill="#2b2b2b" d="M 9.5,33.5 C 9.98166,34.4163 10.315,35.4163 10.5,36.5C 9.15992,41.1758 7.82659,45.8424 6.5,50.5C 7,51.5 7.5,52.5 8,53.5C 8.38789,52.572 9.05456,51.9054 10,51.5C 13.0239,52.1926 16.1906,52.1926 19.5,51.5C 19.2619,55.0993 20.2619,55.4327 22.5,52.5C 24.0981,54.9734 25.5981,54.9734 27,52.5C 28.0633,53.4378 29.2299,54.4378 30.5,55.5C 32.9866,55.2176 35.6533,55.2176 38.5,55.5C 37.6586,57.3792 37.3253,59.3792 37.5,61.5C 36.6981,62.9516 36.1981,64.6183 36,66.5C 35.5172,65.552 35.3505,64.552 35.5,63.5C 34.5,63.5 33.5,63.5 32.5,63.5C 32.1667,67.5 31.8333,67.5 31.5,63.5C 30.5,63.5 29.5,63.5 28.5,63.5C 28.1667,67.5 27.8333,67.5 27.5,63.5C 26.5,63.5 25.5,63.5 24.5,63.5C 24.1667,67.5 23.8333,67.5 23.5,63.5C 22.5,63.5 21.5,63.5 20.5,63.5C 20.1667,67.5 19.8333,67.5 19.5,63.5C 18.5,63.5 17.5,63.5 16.5,63.5C 16.1667,67.5 15.8333,67.5 15.5,63.5C 14.5,63.5 13.5,63.5 12.5,63.5C 12.1667,67.5 11.8333,67.5 11.5,63.5C 10.5,63.5 9.5,63.5 8.5,63.5C 8.40422,67.3107 7.73755,67.3107 6.5,63.5C 5.67346,59.5408 5.17346,55.5408 5,51.5C 4.00318,57.4611 3.33652,63.4611 3,69.5C 2.50098,65.1794 2.33432,60.8461 2.5,56.5C 2.83901,48.124 5.17234,40.4573 9.5,33.5 Z"/></g>
<g><path style="opacity:0.997" fill="#d60a16" d="M 71.5,47.5 C 71.6633,49.8568 71.4966,52.1902 71,54.5C 66.704,56.4857 62.5373,56.4857 58.5,54.5C 56.8287,52.4902 56.162,50.1569 56.5,47.5C 61.3668,44.9532 66.3668,44.9532 71.5,47.5 Z"/></g>
<g><path style="opacity:0.996" fill="#cb0420" d="M 56.5,47.5 C 56.162,50.1569 56.8287,52.4902 58.5,54.5C 62.5373,56.4857 66.704,56.4857 71,54.5C 71.4966,52.1902 71.6633,49.8568 71.5,47.5C 72.1667,47.8333 72.8333,48.1667 73.5,48.5C 74.4474,51.8169 73.4474,54.6503 70.5,57C 67.209,58.5438 63.8757,58.7105 60.5,57.5C 58.1756,56.3378 55.8422,55.1711 53.5,54C 52.7476,53.3292 52.4142,52.4959 52.5,51.5C 53.1667,50.5 53.8333,49.5 54.5,48.5C 54.8417,47.6618 55.5084,47.3284 56.5,47.5 Z"/></g>
<g><path style="opacity:0.995" fill="#bf012b" d="M 73.5,48.5 C 74.5,48.8333 75.1667,49.5 75.5,50.5C 76.6303,53.1367 76.6303,55.8033 75.5,58.5C 72.9026,58.6432 70.5692,59.4766 68.5,61C 60.5474,62.8571 54.5474,60.3571 50.5,53.5C 50.8555,52.4777 51.5222,51.811 52.5,51.5C 52.4142,52.4959 52.7476,53.3292 53.5,54C 55.8422,55.1711 58.1756,56.3378 60.5,57.5C 63.8757,58.7105 67.209,58.5438 70.5,57C 73.4474,54.6503 74.4474,51.8169 73.5,48.5 Z"/></g>
<g><path style="opacity:0.998" fill="#a60245" d="M 49.5,53.5 C 50.0257,59.2003 53.0257,63.0336 58.5,65C 66.5686,66.9234 73.5686,65.0901 79.5,59.5C 74.2876,66.4181 67.2876,68.9181 58.5,67C 55.0618,66.08 52.0618,64.4133 49.5,62C 47.8446,60.5557 47.178,58.7224 47.5,56.5C 47.427,54.9731 48.0937,53.9731 49.5,53.5 Z"/></g>
<g><path style="opacity:0.991" fill="#b10438" d="M 54.5,48.5 C 53.8333,49.5 53.1667,50.5 52.5,51.5C 51.5222,51.811 50.8555,52.4777 50.5,53.5C 54.5474,60.3571 60.5474,62.8571 68.5,61C 70.5692,59.4766 72.9026,58.6432 75.5,58.5C 76.6303,55.8033 76.6303,53.1367 75.5,50.5C 77.5869,51.5846 78.9202,53.2512 79.5,55.5C 79.5,56.8333 79.5,58.1667 79.5,59.5C 73.5686,65.0901 66.5686,66.9234 58.5,65C 53.0257,63.0336 50.0257,59.2003 49.5,53.5C 50.1667,50.8333 51.8333,49.1667 54.5,48.5 Z"/></g>
<g><path style="opacity:0.995" fill="#1d1d1d" d="M 37.5,61.5 C 37.234,71.2138 40.9007,79.0472 48.5,85C 53.0095,87.2949 57.6762,89.1282 62.5,90.5C 66.3645,90.0482 70.3645,89.0482 74.5,87.5C 75.6843,88.6879 75.6843,89.8545 74.5,91C 77.2876,93.3738 76.9542,94.7071 73.5,95C 74.6988,97.4837 76.5321,97.6504 79,95.5C 79.4828,96.448 79.6495,97.448 79.5,98.5C 76.225,98.2328 75.3916,99.2328 77,101.5C 78.7849,100.76 80.6183,100.093 82.5,99.5C 82.8333,100 83.1667,100.5 83.5,101C 81.8948,102.388 80.3948,103.888 79,105.5C 77.984,104.366 77.3173,104.699 77,106.5C 75.8869,105.289 74.7202,105.289 73.5,106.5C 72.5713,105.311 72.238,103.978 72.5,102.5C 70.549,102.773 69.049,102.107 68,100.5C 65.6068,102.994 64.4401,102.327 64.5,98.5C 61.5,98.8333 60.1667,97.5 60.5,94.5C 58.549,94.7733 57.049,94.1066 56,92.5C 54.8173,93.731 53.6507,93.731 52.5,92.5C 52.7093,91.914 53.0426,91.414 53.5,91C 51.2729,90.879 49.4396,90.0456 48,88.5C 47.2904,89.9733 46.1238,90.6399 44.5,90.5C 44.1667,86.5 43.8333,86.5 43.5,90.5C 42.5,90.5 41.5,90.5 40.5,90.5C 40.1667,86.5 39.8333,86.5 39.5,90.5C 38.5,90.5 37.5,90.5 36.5,90.5C 36.1667,86.5 35.8333,86.5 35.5,90.5C 33.8762,90.6399 32.7096,89.9733 32,88.5C 30.5604,90.0456 28.7271,90.879 26.5,91C 27.6223,92.6134 27.1223,93.7801 25,94.5C 24.6667,93.8333 24.3333,93.1667 24,92.5C 23.2276,93.8491 22.0609,94.6824 20.5,95C 19.4734,96.8665 18.4734,98.6998 17.5,100.5C 15.6944,98.9106 14.3611,96.9106 13.5,94.5C 13.9767,93.5224 14.6433,92.6891 15.5,92C 11.551,91.1932 11.551,90.6932 15.5,90.5C 15.5,89.5 15.5,88.5 15.5,87.5C 13.8008,87.6602 12.1341,87.4935 10.5,87C 11.3366,85.9887 11.67,84.8221 11.5,83.5C 10.1779,83.67 9.01127,83.3366 8,82.5C 7.33333,80.5 6.66667,78.5 6,76.5C 5.76445,78.1193 4.93112,79.1193 3.5,79.5C 1.5141,71.7621 1.18077,64.0954 2.5,56.5C 2.33432,60.8461 2.50098,65.1794 3,69.5C 3.33652,63.4611 4.00318,57.4611 5,51.5C 5.17346,55.5408 5.67346,59.5408 6.5,63.5C 7.73755,67.3107 8.40422,67.3107 8.5,63.5C 9.5,63.5 10.5,63.5 11.5,63.5C 11.8333,67.5 12.1667,67.5 12.5,63.5C 13.5,63.5 14.5,63.5 15.5,63.5C 15.8333,67.5 16.1667,67.5 16.5,63.5C 17.5,63.5 18.5,63.5 19.5,63.5C 19.8333,67.5 20.1667,67.5 20.5,63.5C 21.5,63.5 22.5,63.5 23.5,63.5C 23.8333,67.5 24.1667,67.5 24.5,63.5C 25.5,63.5 26.5,63.5 27.5,63.5C 27.8333,67.5 28.1667,67.5 28.5,63.5C 29.5,63.5 30.5,63.5 31.5,63.5C 31.8333,67.5 32.1667,67.5 32.5,63.5C 33.5,63.5 34.5,63.5 35.5,63.5C 35.3505,64.552 35.5172,65.552 36,66.5C 36.1981,64.6183 36.6981,62.9516 37.5,61.5 Z"/></g>
<g><path style="opacity:0.997" fill="#9a0152" d="M 79.5,55.5 C 80.3382,55.8417 80.6716,56.5084 80.5,57.5C 80.8076,59.924 80.4742,62.2573 79.5,64.5C 69.2919,72.3165 58.9586,72.4831 48.5,65C 46.771,63.2111 46.1043,61.0444 46.5,58.5C 46.3284,57.5084 46.6618,56.8417 47.5,56.5C 47.178,58.7224 47.8446,60.5557 49.5,62C 52.0618,64.4133 55.0618,66.08 58.5,67C 67.2876,68.9181 74.2876,66.4181 79.5,59.5C 79.5,58.1667 79.5,56.8333 79.5,55.5 Z"/></g>
<g><path style="opacity:0.997" fill="#80016a" d="M 81.5,65.5 C 81.3076,69.1024 79.9743,72.1024 77.5,74.5C 70.4083,74.57 63.075,74.4034 55.5,74C 53.3853,73.4427 51.3853,72.6094 49.5,71.5C 48.8933,71.6236 48.56,71.9569 48.5,72.5C 47.2616,70.7857 46.595,68.7857 46.5,66.5C 47.552,66.3505 48.552,66.5172 49.5,67C 53.3555,71.1774 58.1889,73.0107 64,72.5C 70.9682,72.7583 76.8016,70.425 81.5,65.5 Z"/></g>
<g><path style="opacity:0.997" fill="#89035b" d="M 80.5,57.5 C 81.4731,59.9479 81.8064,62.6146 81.5,65.5C 76.8016,70.425 70.9682,72.7583 64,72.5C 58.1889,73.0107 53.3555,71.1774 49.5,67C 48.552,66.5172 47.552,66.3505 46.5,66.5C 45.1667,63.8333 45.1667,61.1667 46.5,58.5C 46.1043,61.0444 46.771,63.2111 48.5,65C 58.9586,72.4831 69.2919,72.3165 79.5,64.5C 80.4742,62.2573 80.8076,59.924 80.5,57.5 Z"/></g>
<g><path style="opacity:0.106" fill="#490016" d="M 63.5,62.5 C 66.1368,64.1538 65.8034,64.6538 62.5,64C 63.056,63.6174 63.3893,63.1174 63.5,62.5 Z"/></g>
<g><path style="opacity:0.997" fill="#750177" d="M 77.5,74.5 C 77.1667,75.5 76.5,76.1667 75.5,76.5C 67.765,77.7008 59.765,77.7008 51.5,76.5C 50.0256,75.5637 49.0256,74.2303 48.5,72.5C 48.56,71.9569 48.8933,71.6236 49.5,71.5C 51.3853,72.6094 53.3853,73.4427 55.5,74C 63.075,74.4034 70.4083,74.57 77.5,74.5 Z"/></g>
<g><path style="opacity:1" fill="#62037e" d="M 75.5,76.5 C 67.5,83.1667 59.5,83.1667 51.5,76.5C 59.765,77.7008 67.765,77.7008 75.5,76.5 Z"/></g>
<g><path style="opacity:0.998" fill="#222222" d="M 122.5,63.5 C 119.562,94.7729 102.896,114.44 72.5,122.5C 72.9443,120.887 73.9443,119.72 75.5,119C 74.552,118.517 73.552,118.351 72.5,118.5C 72.6621,116.473 72.4955,114.473 72,112.5C 71.6667,113.167 71.3333,113.833 71,114.5C 70.5,113.333 69.6667,112.5 68.5,112C 69.1667,111.667 69.8333,111.333 70.5,111C 69.0611,110.009 68.0611,108.676 67.5,107C 65.9391,106.682 64.7724,105.849 64,104.5C 63.6667,104.833 63.3333,105.167 63,105.5C 62,104.167 61,102.833 60,101.5C 59.6667,101.833 59.3333,102.167 59,102.5C 56.1772,98.6629 52.6772,96.9962 48.5,97.5C 48.5,96.5 48.5,95.5 48.5,94.5C 43.1563,94.334 37.8229,94.5006 32.5,95C 31.4776,97.3163 29.9776,97.8163 28,96.5C 26.951,98.1066 25.451,98.7733 23.5,98.5C 23.719,99.675 23.3857,100.675 22.5,101.5C 21.3366,102.056 20.3366,102.389 19.5,102.5C 18.5,102.167 17.8333,101.5 17.5,100.5C 18.4734,98.6998 19.4734,96.8665 20.5,95C 22.0609,94.6824 23.2276,93.8491 24,92.5C 24.3333,93.1667 24.6667,93.8333 25,94.5C 27.1223,93.7801 27.6223,92.6134 26.5,91C 28.7271,90.879 30.5604,90.0456 32,88.5C 32.7096,89.9733 33.8762,90.6399 35.5,90.5C 35.8333,86.5 36.1667,86.5 36.5,90.5C 37.5,90.5 38.5,90.5 39.5,90.5C 39.8333,86.5 40.1667,86.5 40.5,90.5C 41.5,90.5 42.5,90.5 43.5,90.5C 43.8333,86.5 44.1667,86.5 44.5,90.5C 46.1238,90.6399 47.2904,89.9733 48,88.5C 49.4396,90.0456 51.2729,90.879 53.5,91C 53.0426,91.414 52.7093,91.914 52.5,92.5C 53.6507,93.731 54.8173,93.731 56,92.5C 57.049,94.1066 58.549,94.7733 60.5,94.5C 60.1667,97.5 61.5,98.8333 64.5,98.5C 64.4401,102.327 65.6068,102.994 68,100.5C 69.049,102.107 70.549,102.773 72.5,102.5C 72.238,103.978 72.5713,105.311 73.5,106.5C 74.7202,105.289 75.8869,105.289 77,106.5C 77.3173,104.699 77.984,104.366 79,105.5C 80.3948,103.888 81.8948,102.388 83.5,101C 83.1667,100.5 82.8333,100 82.5,99.5C 80.6183,100.093 78.7849,100.76 77,101.5C 75.3916,99.2328 76.225,98.2328 79.5,98.5C 79.6495,97.448 79.4828,96.448 79,95.5C 76.5321,97.6504 74.6988,97.4837 73.5,95C 76.9542,94.7071 77.2876,93.3738 74.5,91C 75.6843,89.8545 75.6843,88.6879 74.5,87.5C 76.0495,86.5592 77.7162,85.8925 79.5,85.5C 84.3235,82.9743 84.6569,83.8076 80.5,88C 81.448,88.4828 82.448,88.6495 83.5,88.5C 83.3433,89.8734 83.51,91.2068 84,92.5C 89.1277,89.9688 89.6277,90.8022 85.5,95C 86.7932,95.49 88.1266,95.6567 89.5,95.5C 89.67,96.8221 89.3366,97.9887 88.5,99C 89,99.5 89.5,100 90,100.5C 93.3132,98.0213 96.4798,95.3546 99.5,92.5C 100.637,89.0724 102.971,87.5724 106.5,88C 102.645,94.4204 97.3118,100.087 90.5,105C 91.7155,107.096 92.5488,106.929 93,104.5C 94,104.833 95,105.167 96,105.5C 96.935,102.898 98.7683,101.398 101.5,101C 102.45,98.4096 104.116,96.4096 106.5,95C 106.167,94.6667 105.833,94.3333 105.5,94C 107.884,90.678 110.05,87.178 112,83.5C 112.973,81.2232 113.14,79.0565 112.5,77C 115.39,75.1082 115.056,74.2749 111.5,74.5C 110.886,77.2763 110.719,79.9429 111,82.5C 109.927,81.7203 108.76,81.887 107.5,83C 107.833,83.3333 108.167,83.6667 108.5,84C 107.603,86.1265 106.269,86.6265 104.5,85.5C 106.697,80.6249 108.697,75.7916 110.5,71C 109.643,70.3109 108.977,69.4776 108.5,68.5C 110.007,67.2612 111.174,67.5946 112,69.5C 112.71,68.0267 113.876,67.3601 115.5,67.5C 115.5,68.5 115.5,69.5 115.5,70.5C 111.828,71.0447 112.162,71.3781 116.5,71.5C 116.5,68.8333 116.5,66.1667 116.5,63.5C 117.5,63.5 118.5,63.5 119.5,63.5C 119.351,64.552 119.517,65.552 120,66.5C 120.236,64.8807 121.069,63.8807 122.5,63.5 Z"/></g>
<g><path style="opacity:0.958" fill="#0b0b0b" d="M 122.5,63.5 C 122.902,66.4766 123.902,69.1433 125.5,71.5C 120.736,102.593 103.069,121.259 72.5,127.5C 66.8333,127.5 61.1667,127.5 55.5,127.5C 28.3226,122.328 10.9893,106.328 3.5,79.5C 4.93112,79.1193 5.76445,78.1193 6,76.5C 6.66667,78.5 7.33333,80.5 8,82.5C 9.01127,83.3366 10.1779,83.67 11.5,83.5C 11.67,84.8221 11.3366,85.9887 10.5,87C 12.1341,87.4935 13.8008,87.6602 15.5,87.5C 15.5,88.5 15.5,89.5 15.5,90.5C 11.551,90.6932 11.551,91.1932 15.5,92C 14.6433,92.6891 13.9767,93.5224 13.5,94.5C 14.3611,96.9106 15.6944,98.9106 17.5,100.5C 17.8333,101.5 18.5,102.167 19.5,102.5C 21.8333,106.167 24.8333,109.167 28.5,111.5C 36.7137,117.907 46.0471,121.573 56.5,122.5C 61.6814,123.636 67.0147,123.636 72.5,122.5C 102.896,114.44 119.562,94.7729 122.5,63.5 Z"/></g>
<g><path style="opacity:0.998" fill="#2c2c2c" d="M 72.5,122.5 C 67.0147,123.636 61.6814,123.636 56.5,122.5C 58.604,122.799 60.604,122.466 62.5,121.5C 61.3595,120.575 61.3595,119.741 62.5,119C 58.4692,114.986 54.9692,111.819 52,109.5C 51.586,109.957 51.086,110.291 50.5,110.5C 48.3786,109.65 46.2119,108.65 44,107.5C 42.9505,108.517 41.7839,108.684 40.5,108C 43.1208,107.094 42.9541,106.594 40,106.5C 37.0459,106.594 36.8792,107.094 39.5,108C 39,108.167 38.5,108.333 38,108.5C 35.9269,108.239 33.9269,108.239 32,108.5C 31.015,109.814 29.8484,110.814 28.5,111.5C 24.8333,109.167 21.8333,106.167 19.5,102.5C 20.3366,102.389 21.3366,102.056 22.5,101.5C 23.3857,100.675 23.719,99.675 23.5,98.5C 25.451,98.7733 26.951,98.1066 28,96.5C 29.9776,97.8163 31.4776,97.3163 32.5,95C 37.8229,94.5006 43.1563,94.334 48.5,94.5C 48.5,95.5 48.5,96.5 48.5,97.5C 52.6772,96.9962 56.1772,98.6629 59,102.5C 59.3333,102.167 59.6667,101.833 60,101.5C 61,102.833 62,104.167 63,105.5C 63.3333,105.167 63.6667,104.833 64,104.5C 64.7724,105.849 65.9391,106.682 67.5,107C 68.0611,108.676 69.0611,110.009 70.5,111C 69.8333,111.333 69.1667,111.667 68.5,112C 69.6667,112.5 70.5,113.333 71,114.5C 71.3333,113.833 71.6667,113.167 72,112.5C 72.4955,114.473 72.6621,116.473 72.5,118.5C 73.552,118.351 74.552,118.517 75.5,119C 73.9443,119.72 72.9443,120.887 72.5,122.5 Z"/></g>
<g><path style="opacity:0.998" fill="#404040" d="M 56.5,122.5 C 46.0471,121.573 36.7137,117.907 28.5,111.5C 29.8484,110.814 31.015,109.814 32,108.5C 33.9269,108.239 35.9269,108.239 38,108.5C 38.5,108.333 39,108.167 39.5,108C 36.8792,107.094 37.0459,106.594 40,106.5C 42.9541,106.594 43.1208,107.094 40.5,108C 41.7839,108.684 42.9505,108.517 44,107.5C 46.2119,108.65 48.3786,109.65 50.5,110.5C 51.086,110.291 51.586,109.957 52,109.5C 54.9692,111.819 58.4692,114.986 62.5,119C 61.3595,119.741 61.3595,120.575 62.5,121.5C 60.604,122.466 58.604,122.799 56.5,122.5 Z"/></g>
</svg>
